<mxfile host="app.diagrams.net" modified="2024-06-20T07:58:00.319Z" agent="Mozilla/5.0 (Windows NT 10.0; Win64; x64) AppleWebKit/537.36 (KHTML, like Gecko) Chrome/125.0.0.0 Safari/537.36 Edg/125.0.0.0" etag="hQmuqbXui1qha3s2DgOl" version="24.2.3" type="github">
  <diagram name="第 1 页" id="q-j6vuq5w8XLsUYLvh6M">
    <mxGraphModel dx="1392" dy="1470" grid="1" gridSize="10" guides="1" tooltips="1" connect="1" arrows="1" fold="1" page="1" pageScale="1" pageWidth="800" pageHeight="680" math="0" shadow="0">
      <root>
        <mxCell id="0" />
        <mxCell id="1" parent="0" />
        <mxCell id="Zr5mx6mt9YZKuDAXMMV7-28" value="" style="whiteSpace=wrap;html=1;aspect=fixed;strokeWidth=3;" vertex="1" parent="1">
          <mxGeometry x="10" y="-7.5" width="327.5" height="327.5" as="geometry" />
        </mxCell>
        <mxCell id="Zr5mx6mt9YZKuDAXMMV7-11" value="" style="group" vertex="1" connectable="0" parent="1">
          <mxGeometry x="20" y="40" width="105" height="92.5" as="geometry" />
        </mxCell>
        <mxCell id="Zr5mx6mt9YZKuDAXMMV7-1" value="" style="rounded=0;whiteSpace=wrap;html=1;rotation=90;strokeWidth=2;fontFamily=Times New Roman;fillColor=#f8cecc;strokeColor=#b85450;" vertex="1" parent="Zr5mx6mt9YZKuDAXMMV7-11">
          <mxGeometry x="7" y="12.5" width="92.5" height="67.5" as="geometry" />
        </mxCell>
        <mxCell id="Zr5mx6mt9YZKuDAXMMV7-2" value="&lt;font size=&quot;1&quot;&gt;&lt;b style=&quot;font-size: 20px;&quot;&gt;D&lt;/b&gt;&lt;/font&gt;" style="text;html=1;strokeColor=none;fillColor=none;align=center;verticalAlign=middle;whiteSpace=wrap;rounded=0;strokeWidth=2;fontFamily=Times New Roman;" vertex="1" parent="Zr5mx6mt9YZKuDAXMMV7-11">
          <mxGeometry y="12.5" width="60" height="30" as="geometry" />
        </mxCell>
        <mxCell id="Zr5mx6mt9YZKuDAXMMV7-3" value="&lt;font size=&quot;1&quot;&gt;&lt;b style=&quot;font-size: 20px;&quot;&gt;Q&lt;/b&gt;&lt;/font&gt;" style="text;html=1;strokeColor=none;fillColor=none;align=center;verticalAlign=middle;whiteSpace=wrap;rounded=0;strokeWidth=2;fontFamily=Times New Roman;" vertex="1" parent="Zr5mx6mt9YZKuDAXMMV7-11">
          <mxGeometry x="45" y="12.5" width="60" height="30" as="geometry" />
        </mxCell>
        <mxCell id="Zr5mx6mt9YZKuDAXMMV7-4" value="" style="triangle;whiteSpace=wrap;html=1;strokeWidth=2;fontFamily=Times New Roman;" vertex="1" parent="Zr5mx6mt9YZKuDAXMMV7-11">
          <mxGeometry x="20" y="70" width="10" height="10" as="geometry" />
        </mxCell>
        <mxCell id="Zr5mx6mt9YZKuDAXMMV7-5" value="&lt;font size=&quot;1&quot;&gt;&lt;b style=&quot;font-size: 20px;&quot;&gt;clk&lt;/b&gt;&lt;/font&gt;" style="text;html=1;strokeColor=none;fillColor=none;align=center;verticalAlign=middle;whiteSpace=wrap;rounded=0;strokeWidth=2;fontFamily=Times New Roman;" vertex="1" parent="Zr5mx6mt9YZKuDAXMMV7-11">
          <mxGeometry x="17" y="58" width="60" height="30" as="geometry" />
        </mxCell>
        <mxCell id="Zr5mx6mt9YZKuDAXMMV7-12" value="" style="group" vertex="1" connectable="0" parent="1">
          <mxGeometry x="225" y="40" width="105" height="92.5" as="geometry" />
        </mxCell>
        <mxCell id="Zr5mx6mt9YZKuDAXMMV7-6" value="" style="rounded=0;whiteSpace=wrap;html=1;rotation=90;strokeWidth=2;fontFamily=Times New Roman;fillColor=#f8cecc;strokeColor=#b85450;" vertex="1" parent="Zr5mx6mt9YZKuDAXMMV7-12">
          <mxGeometry x="7" y="12.5" width="92.5" height="67.5" as="geometry" />
        </mxCell>
        <mxCell id="Zr5mx6mt9YZKuDAXMMV7-7" value="&lt;font size=&quot;1&quot;&gt;&lt;b style=&quot;font-size: 20px;&quot;&gt;D&lt;/b&gt;&lt;/font&gt;" style="text;html=1;strokeColor=none;fillColor=none;align=center;verticalAlign=middle;whiteSpace=wrap;rounded=0;strokeWidth=2;fontFamily=Times New Roman;" vertex="1" parent="Zr5mx6mt9YZKuDAXMMV7-12">
          <mxGeometry y="12.5" width="60" height="30" as="geometry" />
        </mxCell>
        <mxCell id="Zr5mx6mt9YZKuDAXMMV7-8" value="&lt;font size=&quot;1&quot;&gt;&lt;b style=&quot;font-size: 20px;&quot;&gt;Q&lt;/b&gt;&lt;/font&gt;" style="text;html=1;strokeColor=none;fillColor=none;align=center;verticalAlign=middle;whiteSpace=wrap;rounded=0;strokeWidth=2;fontFamily=Times New Roman;" vertex="1" parent="Zr5mx6mt9YZKuDAXMMV7-12">
          <mxGeometry x="45" y="12.5" width="60" height="30" as="geometry" />
        </mxCell>
        <mxCell id="Zr5mx6mt9YZKuDAXMMV7-9" value="" style="triangle;whiteSpace=wrap;html=1;strokeWidth=2;fontFamily=Times New Roman;" vertex="1" parent="Zr5mx6mt9YZKuDAXMMV7-12">
          <mxGeometry x="20" y="70" width="10" height="10" as="geometry" />
        </mxCell>
        <mxCell id="Zr5mx6mt9YZKuDAXMMV7-10" value="&lt;font size=&quot;1&quot;&gt;&lt;b style=&quot;font-size: 20px;&quot;&gt;clk&lt;/b&gt;&lt;/font&gt;" style="text;html=1;strokeColor=none;fillColor=none;align=center;verticalAlign=middle;whiteSpace=wrap;rounded=0;strokeWidth=2;fontFamily=Times New Roman;" vertex="1" parent="Zr5mx6mt9YZKuDAXMMV7-12">
          <mxGeometry x="17" y="58" width="60" height="30" as="geometry" />
        </mxCell>
        <mxCell id="Zr5mx6mt9YZKuDAXMMV7-20" value="" style="group" vertex="1" connectable="0" parent="1">
          <mxGeometry x="120" y="210" width="105" height="92.5" as="geometry" />
        </mxCell>
        <mxCell id="Zr5mx6mt9YZKuDAXMMV7-21" value="" style="rounded=0;whiteSpace=wrap;html=1;rotation=90;strokeWidth=2;fontFamily=Times New Roman;fillColor=#f8cecc;strokeColor=#b85450;" vertex="1" parent="Zr5mx6mt9YZKuDAXMMV7-20">
          <mxGeometry x="7" y="12.5" width="92.5" height="67.5" as="geometry" />
        </mxCell>
        <mxCell id="Zr5mx6mt9YZKuDAXMMV7-22" value="&lt;font size=&quot;1&quot;&gt;&lt;b style=&quot;font-size: 20px;&quot;&gt;D&lt;/b&gt;&lt;/font&gt;" style="text;html=1;strokeColor=none;fillColor=none;align=center;verticalAlign=middle;whiteSpace=wrap;rounded=0;strokeWidth=2;fontFamily=Times New Roman;" vertex="1" parent="Zr5mx6mt9YZKuDAXMMV7-20">
          <mxGeometry y="12.5" width="60" height="30" as="geometry" />
        </mxCell>
        <mxCell id="Zr5mx6mt9YZKuDAXMMV7-23" value="&lt;font size=&quot;1&quot;&gt;&lt;b style=&quot;font-size: 20px;&quot;&gt;Q&lt;/b&gt;&lt;/font&gt;" style="text;html=1;strokeColor=none;fillColor=none;align=center;verticalAlign=middle;whiteSpace=wrap;rounded=0;strokeWidth=2;fontFamily=Times New Roman;" vertex="1" parent="Zr5mx6mt9YZKuDAXMMV7-20">
          <mxGeometry x="45" y="12.5" width="60" height="30" as="geometry" />
        </mxCell>
        <mxCell id="Zr5mx6mt9YZKuDAXMMV7-24" value="" style="triangle;whiteSpace=wrap;html=1;strokeWidth=2;fontFamily=Times New Roman;" vertex="1" parent="Zr5mx6mt9YZKuDAXMMV7-20">
          <mxGeometry x="20" y="70" width="10" height="10" as="geometry" />
        </mxCell>
        <mxCell id="Zr5mx6mt9YZKuDAXMMV7-25" value="&lt;font size=&quot;1&quot;&gt;&lt;b style=&quot;font-size: 20px;&quot;&gt;clk&lt;/b&gt;&lt;/font&gt;" style="text;html=1;strokeColor=none;fillColor=none;align=center;verticalAlign=middle;whiteSpace=wrap;rounded=0;strokeWidth=2;fontFamily=Times New Roman;" vertex="1" parent="Zr5mx6mt9YZKuDAXMMV7-20">
          <mxGeometry x="17" y="58" width="60" height="30" as="geometry" />
        </mxCell>
        <mxCell id="Zr5mx6mt9YZKuDAXMMV7-30" value="" style="rounded=0;whiteSpace=wrap;html=1;strokeWidth=3;" vertex="1" parent="1">
          <mxGeometry x="460" y="-7.5" width="230" height="327.5" as="geometry" />
        </mxCell>
        <mxCell id="Zr5mx6mt9YZKuDAXMMV7-31" value="" style="ellipse;whiteSpace=wrap;html=1;aspect=fixed;fillColor=#ffe6cc;strokeColor=#d79b00;strokeWidth=3;" vertex="1" parent="1">
          <mxGeometry x="510" y="20" width="60" height="60" as="geometry" />
        </mxCell>
        <mxCell id="Zr5mx6mt9YZKuDAXMMV7-32" value="" style="ellipse;whiteSpace=wrap;html=1;aspect=fixed;fillColor=#ffe6cc;strokeColor=#d79b00;strokeWidth=3;" vertex="1" parent="1">
          <mxGeometry x="610" y="100" width="60" height="60" as="geometry" />
        </mxCell>
        <mxCell id="Zr5mx6mt9YZKuDAXMMV7-33" value="" style="ellipse;whiteSpace=wrap;html=1;aspect=fixed;fillColor=#ffe6cc;strokeColor=#d79b00;strokeWidth=3;" vertex="1" parent="1">
          <mxGeometry x="510" y="190" width="60" height="60" as="geometry" />
        </mxCell>
        <mxCell id="Zr5mx6mt9YZKuDAXMMV7-40" value="" style="curved=1;endArrow=classic;html=1;rounded=0;strokeWidth=3;exitX=0.427;exitY=1.016;exitDx=0;exitDy=0;exitPerimeter=0;" edge="1" parent="1" target="Zr5mx6mt9YZKuDAXMMV7-31">
          <mxGeometry width="50" height="50" relative="1" as="geometry">
            <mxPoint x="516" y="204" as="sourcePoint" />
            <mxPoint x="426" y="56" as="targetPoint" />
            <Array as="points">
              <mxPoint x="460" y="140" />
            </Array>
          </mxGeometry>
        </mxCell>
        <mxCell id="Zr5mx6mt9YZKuDAXMMV7-41" value="" style="curved=1;endArrow=classic;html=1;rounded=0;strokeWidth=3;exitX=1.009;exitY=0.588;exitDx=0;exitDy=0;exitPerimeter=0;entryX=0.211;entryY=0.066;entryDx=0;entryDy=0;entryPerimeter=0;" edge="1" parent="1" source="Zr5mx6mt9YZKuDAXMMV7-31" target="Zr5mx6mt9YZKuDAXMMV7-32">
          <mxGeometry width="50" height="50" relative="1" as="geometry">
            <mxPoint x="636" y="102" as="sourcePoint" />
            <mxPoint x="640" y="-30" as="targetPoint" />
            <Array as="points">
              <mxPoint x="610" y="60" />
            </Array>
          </mxGeometry>
        </mxCell>
        <mxCell id="Zr5mx6mt9YZKuDAXMMV7-42" value="" style="curved=1;endArrow=classic;html=1;rounded=0;strokeWidth=3;exitX=0.234;exitY=0.976;exitDx=0;exitDy=0;exitPerimeter=0;entryX=1.004;entryY=0.308;entryDx=0;entryDy=0;entryPerimeter=0;" edge="1" parent="1" source="Zr5mx6mt9YZKuDAXMMV7-32" target="Zr5mx6mt9YZKuDAXMMV7-33">
          <mxGeometry width="50" height="50" relative="1" as="geometry">
            <mxPoint x="581" y="180" as="sourcePoint" />
            <mxPoint x="633" y="229" as="targetPoint" />
            <Array as="points">
              <mxPoint x="620" y="185" />
            </Array>
          </mxGeometry>
        </mxCell>
      </root>
    </mxGraphModel>
  </diagram>
</mxfile>
